<?xml version="1.0" encoding="utf-8"?>
<!-- Generator: Adobe Illustrator 24.3.0, SVG Export Plug-In . SVG Version: 6.00 Build 0)  -->
<svg version="1.1" id="Layer_1" xmlns="http://www.w3.org/2000/svg" xmlns:xlink="http://www.w3.org/1999/xlink" x="0px" y="0px"
	 viewBox="0 0 348 133" style="enable-background:new 0 0 348 133;" xml:space="preserve">
<style type="text/css">
	.st0{fill-rule:evenodd;clip-rule:evenodd;fill:#07294E;}
	.st1{fill:#07294E;}
	.st2{fill-rule:evenodd;clip-rule:evenodd;fill:#A96E29;}
</style>
<g>
	<path class="st0" d="M17.7,80.16V51.6h2.54c6.87,0,14.97,0.41,20.71-4.59c5.46-4.69,8.28-11.83,8.28-19.27
		c0-7.55-3.48-14.79-9.23-18.97c-5.84-4.28-12.14-3.97-18.83-3.97H4.8v75.36H17.7L17.7,80.16L17.7,80.16z M17.7,38.04V18.35h2.35
		c2.82,0,6.78-0.2,9.6,0.61c3.86,1.12,6.68,4.39,6.68,8.97c0,4.39-2.54,7.96-6.31,9.28c-3.11,1.02-6.78,0.82-9.98,0.82H17.7
		L17.7,38.04L17.7,38.04z"/>
	<path class="st0" d="M106.4,23.66H94.92c0,7.95,0,7.95,0,7.95c-4.14-6.32-10.35-9.79-17.51-9.79c-7.63,0-14.12,3.16-19.39,9.79
		c-4.8,5.91-6.68,12.44-6.68,20.3c0,7.85,2.35,15.19,6.49,20.6c4.52,5.81,11.11,9.48,19.2,9.48c6.59,0,13.93-3.67,17.89-9.48v7.65
		h11.48V23.66L106.4,23.66L106.4,23.66z M94.54,51.8c0,9.69-6.21,17.03-15.25,16.93c-8.47,0.1-15.44-7.04-15.44-16.32
		c0-9.89,6.4-17.44,15.62-17.34C88.33,34.98,94.54,42.32,94.54,51.8L94.54,51.8L94.54,51.8z"/>
	<polygon class="st0" points="131.81,80.16 141.6,80.16 162.68,23.66 148.76,23.66 136.8,60.78 124.66,23.66 110.73,23.66 
		131.81,80.16 131.81,80.16 131.81,80.16 131.81,80.16 	"/>
	<path class="st0" d="M168.41,80.16h12.52v-56.5h-12.52V80.16L168.41,80.16L168.41,80.16z M168.41,17.13h12.52V4.79h-12.52V17.13
		L168.41,17.13L168.41,17.13z"/>
	<polygon class="st0" points="191,80.16 203.52,80.16 203.52,4.79 191,4.79 191,80.16 191,80.16 191,80.16 191,80.16 	"/>
	<path class="st0" d="M213.58,80.16h12.52v-56.5h-12.52V80.16L213.58,80.16L213.58,80.16z M213.58,17.13h12.52V4.79h-12.52V17.13
		L213.58,17.13L213.58,17.13z"/>
	<path class="st0" d="M262.05,21.82c-15.62,0-28.14,13.25-28.14,30.19c0,16.42,12.52,29.98,27.58,29.98
		c15.34,0,27.86-13.26,27.86-29.98C289.35,35.59,277.4,21.82,262.05,21.82L262.05,21.82L262.05,21.82z M261.49,35.08
		c8.66,0,15.34,7.65,15.34,16.93c0,9.48-6.5,16.72-15.34,16.72c-8.57,0-15.06-7.65-15.06-16.72c0-4.49,1.41-8.57,4.33-11.73
		C253.39,37.22,257.63,35.08,261.49,35.08L261.49,35.08L261.49,35.08z"/>
	<path class="st0" d="M296.4,80.16h12.52v-25.6c0-4.49-0.19-10.61,2.07-14.48c1.69-3.06,5.36-5,8.76-5c3.2,0,6.49,1.73,8.28,4.69
		c2.16,3.78,2.16,9.38,2.16,13.77v26.62h12.52V50.89c0-7.24-0.1-14.27-4.14-20.39c-0.37-0.61-0.85-1.12-1.31-1.63
		c-3.77-4.38-9.42-7.04-14.87-7.04s-11.11,2.35-14.4,7.04v-5.2H296.4V80.16L296.4,80.16L296.4,80.16L296.4,80.16L296.4,80.16z"/>
</g>
<g>
	<path class="st1" d="M7.07,112.16H7c0-0.42-0.15-0.77-0.46-1.07c-0.3-0.3-0.66-0.44-1.08-0.44H5.18l-0.02-0.24h1.92V112.16z
		 M7.07,125.46v1.75H5.15v-0.24h0.31c0.42,0,0.77-0.15,1.07-0.44c0.3-0.3,0.45-0.65,0.47-1.07H7.07z M9.93,110.41v16.8H7v-16.8H9.93
		z M13.67,110.41c1.82,0,3.41,0.34,4.76,1.02c1.35,0.68,2.4,1.65,3.13,2.92c0.74,1.26,1.1,2.75,1.1,4.46c0,1.71-0.37,3.2-1.1,4.45
		c-0.74,1.26-1.78,2.23-3.13,2.92c-1.35,0.69-2.94,1.03-4.76,1.03H8.15l-0.02-0.91c0.3,0,0.68,0,1.14,0s0.93,0,1.42,0
		c0.49,0,0.94,0,1.37,0s0.9,0,1.43,0c1.23,0,2.29-0.31,3.18-0.92c0.89-0.62,1.58-1.48,2.08-2.6c0.5-1.12,0.74-2.44,0.74-3.96
		c0-1.52-0.25-2.84-0.74-3.96c-0.5-1.12-1.19-1.99-2.09-2.6s-1.95-0.92-3.17-0.92c-0.56,0-1.06,0-1.5,0c-0.44,0-0.92,0-1.43,0
		s-1,0-1.48,0c-0.47,0-0.87,0-1.19,0v-0.91H13.67z"/>
	<path class="st1" d="M28.19,114.32h-0.05c-0.02-0.37-0.15-0.67-0.41-0.91s-0.57-0.36-0.94-0.36h-0.31v-0.24h1.87L28.19,114.32z
		 M28.19,125.7l0.17,1.51h-1.87v-0.24h0.31c0.37,0,0.68-0.12,0.94-0.37c0.26-0.25,0.39-0.55,0.41-0.9H28.19z M30.95,112.81v14.4
		h-2.81v-14.4H30.95z M37.02,112.81v0.89H30.9v-0.89H37.02z M35.92,119.6v0.89H30.9v-0.89H35.92z M36.86,126.32l0.36,0.89H30.9
		v-0.89H36.86z M38.32,123.13l-1.06,4.08h-3.98l0.77-0.89c0.74,0,1.36-0.13,1.88-0.4c0.52-0.26,0.96-0.64,1.31-1.12
		c0.35-0.48,0.64-1.04,0.86-1.68H38.32z M35.92,117.8v1.85h-1.8v-0.05c0.5,0,0.88-0.15,1.15-0.46c0.27-0.3,0.41-0.68,0.41-1.13
		v-0.22H35.92z M35.92,120.44v1.87h-0.24v-0.22c0-0.45-0.14-0.82-0.41-1.13c-0.27-0.3-0.66-0.46-1.15-0.48v-0.05H35.92z
		 M37.02,112.43v0.62l-2.59-0.24c0.46,0,0.96-0.04,1.49-0.13S36.82,112.51,37.02,112.43z M37.02,113.63v2.26h-0.26v-0.26
		c0-0.58-0.16-1.04-0.48-1.39c-0.32-0.35-0.78-0.53-1.37-0.53v-0.07H37.02z"/>
	<path class="st1" d="M45.98,114.47h-3.26c-0.24-0.51-0.53-0.88-0.88-1.09c-0.34-0.22-0.68-0.32-1-0.32h-0.19v-0.24h6.34v0.24h-0.19
		c-0.26,0-0.5,0.12-0.72,0.36S45.82,114,45.98,114.47z M48.9,127.52l-6.91-14.57h3.36l4.61,10.92L48.9,127.52z M48.9,127.52
		l-0.12-2.4l5.3-12.24h1.68l-5.59,11.88c-0.03,0.05-0.1,0.19-0.2,0.42c-0.1,0.23-0.22,0.5-0.35,0.79c-0.13,0.3-0.24,0.58-0.34,0.86
		c-0.1,0.28-0.16,0.51-0.19,0.68H48.9z M53.39,114.47c0.18-0.46,0.16-0.82-0.06-1.06c-0.22-0.24-0.47-0.36-0.76-0.36h-0.17v-0.24
		h4.7v0.24h-0.19c-0.32,0-0.66,0.11-1.01,0.32c-0.35,0.22-0.65,0.58-0.89,1.09H53.39z"/>
	<path class="st1" d="M61.65,114.32H61.6c-0.02-0.37-0.15-0.67-0.41-0.91s-0.57-0.36-0.94-0.36h-0.31v-0.24h1.87L61.65,114.32z
		 M61.65,125.7l0.17,1.51h-1.87v-0.24h0.31c0.37,0,0.68-0.12,0.94-0.37c0.26-0.25,0.39-0.55,0.41-0.9H61.65z M64.41,112.81v14.4
		H61.6v-14.4H64.41z M70.48,112.81v0.89h-6.12v-0.89H70.48z M69.38,119.6v0.89h-5.02v-0.89H69.38z M70.31,126.32l0.36,0.89h-6.31
		v-0.89H70.31z M71.78,123.13l-1.06,4.08h-3.98l0.77-0.89c0.74,0,1.36-0.13,1.88-0.4c0.52-0.26,0.96-0.64,1.31-1.12
		c0.35-0.48,0.64-1.04,0.86-1.68H71.78z M69.38,117.8v1.85h-1.8v-0.05c0.5,0,0.88-0.15,1.15-0.46c0.27-0.3,0.41-0.68,0.41-1.13
		v-0.22H69.38z M69.38,120.44v1.87h-0.24v-0.22c0-0.45-0.14-0.82-0.41-1.13c-0.27-0.3-0.66-0.46-1.15-0.48v-0.05H69.38z
		 M70.48,112.43v0.62l-2.59-0.24c0.46,0,0.96-0.04,1.49-0.13S70.27,112.51,70.48,112.43z M70.48,113.63v2.26h-0.26v-0.26
		c0-0.58-0.16-1.04-0.48-1.39c-0.32-0.35-0.78-0.53-1.37-0.53v-0.07H70.48z"/>
	<path class="st1" d="M77.13,114.32h-0.05c-0.02-0.37-0.16-0.67-0.42-0.91c-0.26-0.24-0.58-0.36-0.95-0.36c-0.02,0-0.11,0-0.29,0
		v-0.24h1.7V114.32z M77.13,125.7l0.17,1.51h-1.87v-0.24h0.31c0.37,0,0.68-0.12,0.94-0.37c0.26-0.25,0.39-0.55,0.41-0.9H77.13z
		 M79.89,112.81v14.4h-2.81v-14.4H79.89z M79.82,114.32v-1.51h1.7v0.24h-0.26c-0.38,0-0.71,0.12-0.97,0.36
		c-0.26,0.24-0.4,0.54-0.4,0.91H79.82z M85.77,126.32l0.38,0.89h-6.31v-0.89H85.77z M87.28,123.13l-1.08,4.08h-3.98l0.77-0.89
		c0.74,0,1.36-0.13,1.88-0.4c0.52-0.26,0.96-0.64,1.31-1.12c0.35-0.48,0.64-1.04,0.86-1.68H87.28z"/>
	<path class="st1" d="M99.18,112.5c1.22,0,2.34,0.18,3.36,0.53c1.02,0.35,1.91,0.86,2.66,1.51s1.33,1.44,1.74,2.36
		c0.41,0.92,0.61,1.96,0.61,3.11c0,1.15-0.2,2.19-0.61,3.11c-0.41,0.92-0.99,1.71-1.74,2.36s-1.64,1.16-2.66,1.51
		s-2.14,0.53-3.36,0.53c-1.22,0-2.34-0.18-3.36-0.53c-1.02-0.35-1.91-0.86-2.65-1.51c-0.74-0.66-1.32-1.44-1.73-2.36
		c-0.41-0.92-0.61-1.96-0.61-3.11c0-1.15,0.2-2.19,0.61-3.11c0.41-0.92,0.98-1.71,1.73-2.36c0.74-0.66,1.63-1.16,2.65-1.51
		C96.85,112.68,97.97,112.5,99.18,112.5z M99.18,126.66c1.04,0,1.96-0.27,2.76-0.82c0.8-0.54,1.43-1.32,1.88-2.32
		s0.68-2.17,0.68-3.52c0-1.36-0.23-2.54-0.68-3.53s-1.08-1.76-1.88-2.3c-0.8-0.54-1.72-0.82-2.76-0.82s-1.96,0.27-2.76,0.82
		c-0.8,0.54-1.42,1.31-1.87,2.3c-0.45,0.99-0.67,2.17-0.67,3.53c0,1.34,0.22,2.52,0.67,3.52c0.45,1,1.07,1.77,1.87,2.32
		C97.22,126.39,98.14,126.66,99.18,126.66z"/>
	<path class="st1" d="M113.1,114.32h-0.05c-0.02-0.37-0.15-0.67-0.41-0.91s-0.57-0.36-0.94-0.36c-0.02,0-0.07,0-0.16,0
		c-0.09,0-0.14,0-0.16,0v-0.24h1.87L113.1,114.32z M113.1,125.7l0.17,1.51h-1.85v-0.24h0.29c0.37,0,0.68-0.12,0.94-0.37
		c0.26-0.25,0.39-0.55,0.41-0.9H113.1z M115.86,112.81v14.4h-2.81v-14.4H115.86z M118.02,112.81c1.22,0,2.23,0.17,3.05,0.52
		c0.82,0.34,1.43,0.82,1.84,1.43c0.41,0.61,0.62,1.3,0.64,2.06c0.03,0.94-0.16,1.76-0.56,2.44c-0.41,0.68-0.95,1.2-1.63,1.57
		c-0.68,0.37-1.43,0.54-2.26,0.5s-1.63-0.29-2.41-0.77v-0.22c0.38,0.03,0.73,0.02,1.04-0.02s0.64-0.15,0.98-0.3
		c0.34-0.15,0.67-0.4,0.97-0.73c0.3-0.34,0.54-0.79,0.72-1.37c0.05-0.21,0.08-0.43,0.11-0.66c0.02-0.23,0.04-0.44,0.04-0.64
		c-0.02-0.91-0.3-1.63-0.86-2.16c-0.56-0.53-1.34-0.79-2.33-0.79h-1.54c-0.08-0.29-0.16-0.58-0.24-0.86H118.02z M115.79,125.7h0.05
		c0.02,0.35,0.15,0.65,0.4,0.9c0.25,0.25,0.56,0.37,0.95,0.37c0.02,0,0.07,0,0.16,0s0.14,0,0.16,0l-0.02,0.24h-1.85L115.79,125.7z"
		/>
	<path class="st1" d="M128.34,125.65v1.56h-2.4v-0.24h0.34c0.4,0,0.75-0.12,1.06-0.35c0.3-0.23,0.49-0.56,0.55-0.97H128.34z
		 M129.76,112.5h0.19l0.72,2.02l-1.51,12.7h-1.49L129.76,112.5z M129.28,126.01c-0.02,0.19,0.04,0.4,0.17,0.62
		c0.13,0.22,0.36,0.34,0.7,0.36h0.34v0.22h-1.42l0.1-1.2H129.28z M129.95,112.5l6.94,11.26l-1.06,3.86l-6.41-10.58L129.95,112.5z
		 M142.86,112.5l0.22,2.16l-6.17,10.54c-0.27,0.51-0.48,0.96-0.61,1.33c-0.14,0.38-0.22,0.74-0.25,1.09h-0.22l-0.74-1.8
		L142.86,112.5z M142,126.01h0.14l0.1,1.2h-1.42V127h0.34c0.37-0.02,0.61-0.14,0.72-0.36C141.99,126.41,142.03,126.2,142,126.01z
		 M143.08,112.5l2.16,14.71h-3.07l-1.32-9.86l2.02-4.85H143.08z M144.52,125.65H145c0.06,0.42,0.25,0.74,0.55,0.97
		c0.3,0.23,0.65,0.35,1.03,0.35h0.36v0.24h-2.42V125.65z"/>
	<path class="st1" d="M151.77,114.32h-0.05c-0.02-0.37-0.15-0.67-0.41-0.91s-0.57-0.36-0.94-0.36h-0.31v-0.24h1.87L151.77,114.32z
		 M151.77,125.7l0.17,1.51h-1.87v-0.24h0.31c0.37,0,0.68-0.12,0.94-0.37c0.26-0.25,0.39-0.55,0.41-0.9H151.77z M154.53,112.81v14.4
		h-2.81v-14.4H154.53z M160.6,112.81v0.89h-6.12v-0.89H160.6z M159.5,119.6v0.89h-5.02v-0.89H159.5z M160.43,126.32l0.36,0.89h-6.31
		v-0.89H160.43z M161.9,123.13l-1.06,4.08h-3.98l0.77-0.89c0.74,0,1.36-0.13,1.88-0.4c0.52-0.26,0.96-0.64,1.31-1.12
		c0.35-0.48,0.64-1.04,0.86-1.68H161.9z M159.5,117.8v1.85h-1.8v-0.05c0.5,0,0.88-0.15,1.15-0.46c0.27-0.3,0.41-0.68,0.41-1.13
		v-0.22H159.5z M159.5,120.44v1.87h-0.24v-0.22c0-0.45-0.14-0.82-0.41-1.13c-0.27-0.3-0.66-0.46-1.15-0.48v-0.05H159.5z
		 M160.6,112.43v0.62l-2.59-0.24c0.46,0,0.96-0.04,1.49-0.13S160.39,112.51,160.6,112.43z M160.6,113.63v2.26h-0.26v-0.26
		c0-0.58-0.16-1.04-0.48-1.39c-0.32-0.35-0.78-0.53-1.37-0.53v-0.07H160.6z"/>
	<path class="st1" d="M167.1,125.75v1.46h-1.78v-0.24h0.38c0.37,0,0.68-0.12,0.94-0.35c0.26-0.23,0.38-0.52,0.38-0.88H167.1z
		 M167.03,112.48l2.54,2.86v11.88h-2.54v-11.93c0-0.82-0.08-1.75-0.24-2.81H167.03z M167.03,112.48l13.82,12.43l0.24,2.62
		l-13.82-12.46L167.03,112.48z M169.58,125.75c0.02,0.35,0.16,0.64,0.42,0.88c0.26,0.23,0.56,0.35,0.9,0.35h0.41v0.24h-1.78v-1.46
		H169.58z M178.53,114.28c-0.02-0.35-0.15-0.64-0.41-0.88c-0.26-0.23-0.56-0.35-0.91-0.35h-0.41v-0.24h1.78v1.46H178.53z
		 M181.07,112.81v11.83c0,0.54,0.02,1.03,0.06,1.46c0.04,0.43,0.1,0.9,0.18,1.42h-0.22l-2.57-2.98v-11.74H181.07z M181,114.28v-1.46
		h1.8v0.24h-0.41c-0.35,0-0.66,0.12-0.92,0.35c-0.26,0.23-0.4,0.52-0.4,0.88H181z"/>
	<path class="st1" d="M185.92,112.4c0.13,0.05,0.34,0.1,0.62,0.17c0.29,0.06,0.61,0.12,0.96,0.16c0.35,0.04,0.68,0.06,0.98,0.06
		l-2.57,0.24V112.4z M199.58,112.79v0.89h-13.66v-0.89H199.58z M188.03,113.6v0.07c-0.59,0.02-1.05,0.2-1.38,0.54
		c-0.33,0.34-0.49,0.8-0.49,1.36v0.29h-0.24v-2.26H188.03z M191.37,125.7v1.51h-1.66v-0.24h0.26c0.37,0,0.68-0.12,0.94-0.37
		c0.26-0.25,0.39-0.55,0.41-0.9H191.37z M194.18,112.88v14.33h-2.86v-14.33H194.18z M194.08,125.7h0.1c0,0.35,0.13,0.65,0.4,0.9
		c0.26,0.25,0.58,0.37,0.95,0.37h0.24v0.24h-1.68V125.7z M199.58,112.4v0.62l-2.59-0.24c0.32,0,0.66-0.02,1.01-0.06
		c0.35-0.04,0.68-0.09,0.97-0.16C199.26,112.51,199.46,112.45,199.58,112.4z M199.58,113.6v2.26h-0.26v-0.29
		c0.02-0.56-0.14-1.01-0.47-1.36c-0.33-0.34-0.79-0.52-1.38-0.54v-0.07H199.58z"/>
	<path class="st1" d="M227.54,120.2l0.05,4.01c-0.37,0.62-0.86,1.19-1.46,1.69c-0.61,0.5-1.35,0.9-2.22,1.2
		c-0.87,0.3-1.89,0.44-3.06,0.44c-1.86-0.02-3.49-0.38-4.9-1.08s-2.5-1.71-3.28-3.01s-1.16-2.86-1.16-4.67
		c0-1.78,0.38-3.32,1.15-4.62s1.86-2.31,3.26-3.02c1.41-0.71,3.08-1.07,5.02-1.07c1.25,0,2.37,0.14,3.36,0.42
		c0.99,0.28,1.83,0.61,2.52,1l0.19,3.86h-0.21c-0.4-1.52-1.11-2.63-2.12-3.32c-1.02-0.7-2.2-1.04-3.56-1.04
		c-1.31,0-2.44,0.32-3.39,0.95c-0.95,0.63-1.69,1.53-2.21,2.69s-0.78,2.53-0.78,4.12s0.25,2.96,0.76,4.14s1.21,2.09,2.13,2.74
		c0.92,0.65,2,0.99,3.23,1.02c1.2,0,2.24-0.2,3.13-0.61c0.89-0.41,1.62-1.08,2.18-2.03s0.96-2.21,1.19-3.79H227.54z"/>
	<path class="st1" d="M240.4,112.5c1.22,0,2.34,0.18,3.36,0.53c1.02,0.35,1.91,0.86,2.66,1.51s1.33,1.44,1.74,2.36
		s0.61,1.96,0.61,3.11c0,1.15-0.2,2.19-0.61,3.11s-0.99,1.71-1.74,2.36s-1.64,1.16-2.66,1.51c-1.02,0.35-2.14,0.53-3.36,0.53
		s-2.34-0.18-3.36-0.53c-1.02-0.35-1.91-0.86-2.65-1.51s-1.32-1.44-1.73-2.36s-0.61-1.96-0.61-3.11c0-1.15,0.2-2.19,0.61-3.11
		s0.98-1.71,1.73-2.36s1.63-1.16,2.65-1.51C238.06,112.68,239.18,112.5,240.4,112.5z M240.4,126.66c1.04,0,1.96-0.27,2.76-0.82
		c0.8-0.54,1.43-1.32,1.88-2.32s0.68-2.17,0.68-3.52c0-1.36-0.23-2.54-0.68-3.53s-1.08-1.76-1.88-2.3c-0.8-0.54-1.72-0.82-2.76-0.82
		s-1.96,0.27-2.76,0.82s-1.42,1.31-1.87,2.3s-0.67,2.17-0.67,3.53c0,1.34,0.22,2.52,0.67,3.52s1.07,1.77,1.87,2.32
		S239.36,126.66,240.4,126.66z"/>
	<path class="st1" d="M254.1,125.65v1.56h-2.4v-0.24h0.34c0.4,0,0.75-0.12,1.06-0.35c0.3-0.23,0.49-0.56,0.55-0.97H254.1z
		 M255.52,112.5h0.19l0.72,2.02l-1.51,12.7h-1.49L255.52,112.5z M255.04,126.01c-0.02,0.19,0.04,0.4,0.17,0.62
		c0.13,0.22,0.36,0.34,0.7,0.36h0.34v0.22h-1.42l0.1-1.2H255.04z M255.71,112.5l6.94,11.26l-1.06,3.86l-6.41-10.58L255.71,112.5z
		 M268.62,112.5l0.22,2.16l-6.17,10.54c-0.27,0.51-0.48,0.96-0.61,1.33c-0.14,0.38-0.22,0.74-0.25,1.09h-0.22l-0.74-1.8
		L268.62,112.5z M267.76,126.01h0.14l0.1,1.2h-1.42V127h0.34c0.37-0.02,0.61-0.14,0.72-0.36
		C267.75,126.41,267.79,126.2,267.76,126.01z M268.84,112.5l2.16,14.71h-3.07l-1.32-9.86l2.02-4.85H268.84z M270.28,125.65h0.48
		c0.06,0.42,0.25,0.74,0.55,0.97c0.3,0.23,0.65,0.35,1.03,0.35h0.36v0.24h-2.42V125.65z"/>
	<path class="st1" d="M277.53,114.32h-0.05c-0.02-0.37-0.15-0.67-0.41-0.91c-0.26-0.24-0.57-0.36-0.94-0.36c-0.02,0-0.07,0-0.16,0
		s-0.14,0-0.16,0v-0.24h1.87L277.53,114.32z M277.53,125.7l0.17,1.51h-1.85v-0.24h0.29c0.37,0,0.68-0.12,0.94-0.37
		c0.25-0.25,0.39-0.55,0.41-0.9H277.53z M280.29,112.81v14.4h-2.81v-14.4H280.29z M282.45,112.81c1.22,0,2.23,0.17,3.05,0.52
		c0.82,0.34,1.43,0.82,1.84,1.43c0.41,0.61,0.62,1.3,0.64,2.06c0.03,0.94-0.16,1.76-0.56,2.44c-0.41,0.68-0.95,1.2-1.63,1.57
		c-0.68,0.37-1.43,0.54-2.26,0.5s-1.63-0.29-2.41-0.77v-0.22c0.38,0.03,0.73,0.02,1.04-0.02c0.31-0.05,0.64-0.15,0.98-0.3
		c0.34-0.15,0.67-0.4,0.97-0.73s0.54-0.79,0.72-1.37c0.05-0.21,0.08-0.43,0.11-0.66c0.02-0.23,0.04-0.44,0.04-0.64
		c-0.02-0.91-0.3-1.63-0.86-2.16c-0.56-0.53-1.34-0.79-2.33-0.79h-1.54c-0.08-0.29-0.16-0.58-0.24-0.86H282.45z M280.22,125.7h0.05
		c0.02,0.35,0.15,0.65,0.4,0.9c0.25,0.25,0.56,0.37,0.95,0.37c0.02,0,0.07,0,0.16,0s0.14,0,0.16,0l-0.02,0.24h-1.85L280.22,125.7z"
		/>
	<path class="st1" d="M292.74,125.58c-0.18,0.45-0.15,0.79,0.07,1.03c0.22,0.24,0.47,0.36,0.74,0.36h0.19v0.24h-4.73v-0.24h0.19
		c0.34,0,0.68-0.11,1.03-0.32c0.35-0.22,0.64-0.57,0.86-1.07H292.74z M297.3,112.26l0.07,2.47l-5.3,12.41h-1.68l5.64-12.12
		c0.02-0.06,0.08-0.21,0.18-0.43c0.1-0.22,0.22-0.49,0.35-0.79s0.24-0.6,0.35-0.88c0.1-0.28,0.16-0.5,0.18-0.66H297.3z
		 M299.63,122.22v0.86h-6.22v-0.86H299.63z M297.3,112.26l6.94,14.81h-3.34l-4.68-11.16L297.3,112.26z M300.28,125.58h3.26
		c0.22,0.5,0.51,0.85,0.86,1.07c0.35,0.22,0.69,0.32,1.01,0.32h0.19v0.24h-6.34v-0.24h0.19c0.27,0,0.52-0.12,0.74-0.36
		C300.43,126.37,300.46,126.03,300.28,125.58z"/>
	<path class="st1" d="M309.74,125.75v1.46h-1.78v-0.24h0.38c0.37,0,0.68-0.12,0.94-0.35c0.26-0.23,0.38-0.52,0.38-0.88H309.74z
		 M309.66,112.48l2.54,2.86v11.88h-2.54v-11.93c0-0.82-0.08-1.75-0.24-2.81H309.66z M309.66,112.48l13.82,12.43l0.24,2.62
		l-13.82-12.46L309.66,112.48z M312.21,125.75c0.02,0.35,0.16,0.64,0.42,0.88c0.26,0.23,0.56,0.35,0.9,0.35h0.41v0.24h-1.78v-1.46
		H312.21z M321.16,114.28c-0.02-0.35-0.15-0.64-0.41-0.88c-0.26-0.23-0.56-0.35-0.91-0.35h-0.41v-0.24h1.78v1.46H321.16z
		 M323.7,112.81v11.83c0,0.54,0.02,1.03,0.06,1.46c0.04,0.43,0.1,0.9,0.18,1.42h-0.22l-2.57-2.98v-11.74H323.7z M323.63,114.28
		v-1.46h1.8v0.24h-0.41c-0.35,0-0.66,0.12-0.92,0.35c-0.26,0.23-0.4,0.52-0.4,0.88H323.63z"/>
	<path class="st1" d="M333.45,114.3l-3.29-0.07c-0.24-0.35-0.54-0.64-0.91-0.85c-0.37-0.22-0.78-0.32-1.22-0.32h-0.29v-0.24h6.7
		v0.24h-0.26c-0.34,0-0.58,0.14-0.73,0.41C333.28,113.73,333.29,114.01,333.45,114.3z M332.58,112.84l4.51,7.85l-2.47,0.5
		l-5.35-8.35H332.58z M334.53,125.7v1.51h-1.7v-0.24c0.02,0,0.11,0,0.29,0c0.37,0,0.68-0.12,0.95-0.37c0.26-0.25,0.4-0.55,0.4-0.9
		H334.53z M337.31,120.8v6.41h-2.86v-6.38L337.31,120.8z M340.91,112.84h1.68l-5.5,8.45l-1.06-0.24L340.91,112.84z M337.24,125.7
		h0.07c0.02,0.35,0.15,0.65,0.41,0.9c0.26,0.25,0.57,0.37,0.94,0.37h0.29v0.24h-1.7V125.7z M340.02,114.32
		c0.18-0.3,0.18-0.59,0.01-0.86c-0.17-0.27-0.41-0.41-0.73-0.41h-0.29v-0.24h5.11v0.24h-0.31c-0.43,0-0.84,0.12-1.22,0.36
		s-0.69,0.52-0.91,0.84L340.02,114.32z"/>
</g>
<polygon class="st2" points="4.43,94.2 343.06,94.2 343.06,103.92 4.43,103.92 4.43,94.2 4.43,94.2 4.43,94.2 4.43,94.2 "/>
</svg>
